<svg xmlns="http://www.w3.org/2000/svg" xmlns:xlink="http://www.w3.org/1999/xlink" version="1.1" style="enable-background:new 0 0 612 232;" xml:space="preserve" width="522" height="131"><rect id="backgroundrect" width="100%" height="100%" x="0" y="0" fill="none" stroke="none"/>
<style type="text/css">
	.st0{fill:#3B3B3B;}
	.st1{fill:#B69A16;}
</style>

<g class="currentLayer" style=""><title>Layer 1</title><g id="svg_1" class="">
	<g id="svg_2">
		<g id="svg_3">
			<path class="st0" d="M0.000005187988278976263,99.64000106811523 c0,-0.54 0.27,-0.8500000000000001 1.21,-0.8500000000000001 h4.43 c3.58,0 7.51,1.21 7.51,6.4 c0,4.7 -1.7000000000000002,6.66 -2.91,7.33 c-0.27,0.13 -0.5800000000000001,0.27 -1.3900000000000001,0.4 c0.54,0 0.9400000000000001,0.04000000000000001 1.3,0.13 c0.7200000000000001,0.18000000000000002 3.98,0.9400000000000001 3.98,6.39 c0,7.51 -3.84,10.64 -8.5,10.64 h-5.63 V99.64000106811523 zM3.71000518798828,111.53000106811524 c0,0 1.7400000000000002,0.04000000000000001 2.19,0.04000000000000001 c1.7000000000000002,0 3.26,-1.61 3.26,-5.54 c0,-3.22 -1.61,-4.03 -3.31,-4.03 c-0.4,0 -2.15,0.09000000000000002 -2.15,0.09000000000000002 V111.53000106811524 zM3.71000518798828,126.83000106811522 c0,0 1.6500000000000001,0.09000000000000002 2.01,0.09000000000000002 c2.24,0 4.16,-2.06 4.16,-7.33 c0,-4.43 -1.7000000000000002,-4.88 -4.11,-4.88 c-0.4,0 -2.06,0.04000000000000001 -2.06,0.04000000000000001 V126.83000106811522 z" id="svg_4"/>
			<path class="st0" d="M34.71000518798829,107.64000106811523 c0,4.78 -1.57,7.47 -3.89,8.76 c1.3900000000000001,1.83 3.7600000000000002,5.8100000000000005 4.2,12.88 c0,0.6700000000000002 -0.13,0.8900000000000001 -1.6600000000000001,0.8900000000000001 c-0.5800000000000001,0 -1.52,-0.04000000000000001 -2.33,-0.09000000000000002 c-0.49000000000000005,-7.6 -2.59,-11.31 -3.71,-12.74 c-0.27,0.04000000000000001 -0.5800000000000001,0.04000000000000001 -0.8500000000000001,0.04000000000000001 H24.910005187988276 v11.98 c0,0.7200000000000001 0.09000000000000002,0.7200000000000001 -3.62,0.7200000000000001 v-30.54 c0,0 0,-0.7600000000000001 0.7600000000000001,-0.7600000000000001 h4.43 C32.11000518798828,98.79000106811523 34.71000518798829,101.42000106811523 34.71000518798829,107.64000106811523 zM27.150005187988285,101.96000106811525 c-1.3,0 -2.01,0.04000000000000001 -2.24,0.09000000000000002 v11.89 c0.22000000000000003,0 1.61,0.09000000000000002 1.97,0.09000000000000002 c2.5,0 3.8,-1.83 3.8,-6.79 C30.680005187988286,104.06000106811524 29.790005187988285,101.96000106811525 27.150005187988285,101.96000106811525 z" id="svg_5"/>
			<path class="st0" d="M54.11000518798828,122.13000106811523 h-7.65 l-1.7400000000000002,7.33 c-0.14,0.49000000000000005 -0.27,0.7100000000000001 -1.7000000000000002,0.7100000000000001 c-0.49000000000000005,0 -1.4300000000000002,-0.04000000000000001 -2.2800000000000002,-0.13 l7.96,-30.76 c0.09000000000000002,-0.45 0.8500000000000001,-0.6300000000000001 1.3900000000000001,-0.6300000000000001 c0.6300000000000001,0 1.3,0.04000000000000001 1.7000000000000002,0.13 l8,30.63 c0.09000000000000002,0.49000000000000005 -0.13,0.7600000000000001 -1.56,0.7600000000000001 c-0.54,0 -1.25,0 -2.15,-0.09000000000000002 L54.11000518798828,122.13000106811523 zM47.270005187988275,118.82000106811523 h6.04 l-1.52,-6.35 c-0.7200000000000001,-2.95 -1.3,-5.41 -1.47,-7.5600000000000005 c-0.18000000000000002,2.15 -0.81,4.5600000000000005 -1.52,7.5600000000000005 L47.270005187988275,118.82000106811523 z" id="svg_6"/>
			<path class="st0" d="M79.25000518798828,100.00000106811524 c0,0.6300000000000001 -0.22000000000000003,1.52 -0.8900000000000001,2.46 c-0.6300000000000001,-0.49000000000000005 -2.3200000000000003,-1.12 -4.38,-1.12 c-2.64,0 -4.34,1.1600000000000001 -4.34,3.17 c0,1.47 0.7200000000000001,2.73 2.06,4.34 l5.36,6.62 c1.79,2.1 2.46,4.12 2.46,6.8 c0,4.61 -1.79,8.5 -8,8.5 c-4.07,0 -5.86,-1.52 -5.86,-2.2800000000000002 c0,-0.49000000000000005 0.4,-2.15 0.98,-3 c0.8900000000000001,0.8500000000000001 2.42,1.57 4.74,1.57 c2.8200000000000003,0 4.2,-1.83 4.2,-4.65 c0,-1.97 -0.6300000000000001,-3.44 -2.5,-5.63 l-5.01,-6.26 c-1.61,-2.01 -2.37,-3.85 -2.37,-5.72 c0,-4.2 2.68,-6.66 7.38,-6.66 C77.64000518798828,98.12000106811524 79.25000518798828,99.41000106811524 79.25000518798828,100.00000106811524 z" id="svg_7"/>
			<path class="st0" d="M99.73000518798827,100.00000106811524 c0,0.6300000000000001 -0.22000000000000003,1.52 -0.9,2.46 c-0.6300000000000001,-0.49000000000000005 -2.3200000000000003,-1.12 -4.38,-1.12 c-2.64,0 -4.34,1.1600000000000001 -4.34,3.17 c0,1.47 0.7100000000000001,2.73 2.06,4.34 l5.37,6.62 c1.79,2.1 2.46,4.12 2.46,6.8 c0,4.61 -1.79,8.5 -8,8.5 c-4.07,0 -5.86,-1.52 -5.86,-2.2800000000000002 c0,-0.49000000000000005 0.4,-2.15 0.98,-3 c0.9,0.8500000000000001 2.41,1.57 4.74,1.57 c2.8200000000000003,0 4.2,-1.83 4.2,-4.65 c0,-1.97 -0.6300000000000001,-3.44 -2.5,-5.63 l-5.01,-6.26 c-1.61,-2.01 -2.37,-3.85 -2.37,-5.72 c0,-4.2 2.68,-6.66 7.38,-6.66 C98.12000518798828,98.12000106811524 99.73000518798827,99.41000106811524 99.73000518798827,100.00000106811524 z" id="svg_8"/>
			<path class="st0" d="M118.78000518798828,126.83000106811522 c0,3.04 0,3.26 -0.7200000000000001,3.26 h-10.6 v-30.54 c0,0 0.04000000000000001,-0.7600000000000001 0.7600000000000001,-0.7600000000000001 h10.69 c0,2.95 0,3.27 -0.6700000000000002,3.27 h-7.11 v9.35 h6.71 c0,2.77 0,3.35 -0.6700000000000002,3.35 h-6.04 v12.07 H118.78000518798828 z" id="svg_9"/>
			<path class="st0" d="M139.62000518798828,107.64000106811523 c0,4.78 -1.56,7.47 -3.89,8.76 c1.3900000000000001,1.83 3.7600000000000002,5.8100000000000005 4.2,12.88 c0,0.6700000000000002 -0.13,0.8900000000000001 -1.6600000000000001,0.8900000000000001 c-0.5800000000000001,0 -1.52,-0.04000000000000001 -2.3200000000000003,-0.09000000000000002 c-0.49000000000000005,-7.6 -2.59,-11.31 -3.71,-12.74 c-0.27,0.04000000000000001 -0.5800000000000001,0.04000000000000001 -0.8500000000000001,0.04000000000000001 h-1.57 v11.98 c0,0.7200000000000001 0.09000000000000002,0.7200000000000001 -3.62,0.7200000000000001 v-30.54 c0,0 0,-0.7600000000000001 0.7600000000000001,-0.7600000000000001 h4.43 C137.03000518798828,98.79000106811523 139.62000518798828,101.42000106811523 139.62000518798828,107.64000106811523 zM132.07000518798827,101.96000106811525 c-1.3,0 -2.01,0.04000000000000001 -2.24,0.09000000000000002 v11.89 c0.22000000000000003,0 1.61,0.09000000000000002 1.97,0.09000000000000002 c2.5,0 3.8,-1.83 3.8,-6.79 C135.60000518798827,104.06000106811524 134.70000518798827,101.96000106811525 132.07000518798827,101.96000106811525 z" id="svg_10"/>
			<path class="st0" d="M147.41000518798828,114.44000106811524 c0,-6.8 -0.04000000000000001,-14 -0.04000000000000001,-14 c0,-1.6600000000000001 0.04000000000000001,-1.6600000000000001 3.67,-1.6600000000000001 c0,0 -0.09000000000000002,8.86 -0.09000000000000002,15.65 c0,8 0.09000000000000002,14.93 0.09000000000000002,14.93 c0,0.7200000000000001 -0.04000000000000001,0.7200000000000001 -3.67,0.7200000000000001 C147.3600051879883,130.09000106811524 147.41000518798828,122.44000106811524 147.41000518798828,114.44000106811524 z" id="svg_11"/>
			<path class="st0" d="M170.7100051879883,126.83000106811522 c0,3.04 0,3.26 -0.7200000000000001,3.26 h-10.6 v-30.54 c0,0 0.05000000000000001,-0.7600000000000001 0.7600000000000001,-0.7600000000000001 h10.69 c0,2.95 0,3.27 -0.6700000000000002,3.27 h-7.11 v9.35 h6.71 c0,2.77 0,3.35 -0.6700000000000002,3.35 h-6.04 v12.07 H170.7100051879883 z" id="svg_12"/>
			<path class="st0" d="M201.3000051879883,122.13000106811523 h-7.65 l-1.7400000000000002,7.33 c-0.13,0.49000000000000005 -0.27,0.7100000000000001 -1.7000000000000002,0.7100000000000001 c-0.49000000000000005,0 -1.4300000000000002,-0.04000000000000001 -2.2800000000000002,-0.13 l7.96,-30.76 c0.09000000000000002,-0.45 0.8500000000000001,-0.6300000000000001 1.3900000000000001,-0.6300000000000001 c0.6300000000000001,0 1.3,0.04000000000000001 1.7000000000000002,0.13 l8,30.63 c0.09000000000000002,0.49000000000000005 -0.13,0.7600000000000001 -1.56,0.7600000000000001 c-0.54,0 -1.25,0 -2.15,-0.09000000000000002 L201.3000051879883,122.13000106811523 zM194.45000518798827,118.82000106811523 h6.04 l-1.52,-6.35 c-0.7200000000000001,-2.95 -1.3,-5.41 -1.48,-7.5600000000000005 c-0.18000000000000002,2.15 -0.81,4.5600000000000005 -1.52,7.5600000000000005 L194.45000518798827,118.82000106811523 z" id="svg_13"/>
			<path class="st0" d="M227.0500051879883,107.64000106811523 c0,4.78 -1.57,7.47 -3.89,8.76 c1.3900000000000001,1.83 3.7600000000000002,5.8100000000000005 4.2,12.88 c0,0.6700000000000002 -0.13,0.8900000000000001 -1.6500000000000001,0.8900000000000001 c-0.5800000000000001,0 -1.52,-0.04000000000000001 -2.3200000000000003,-0.09000000000000002 c-0.49000000000000005,-7.6 -2.59,-11.31 -3.71,-12.74 c-0.27,0.04000000000000001 -0.5800000000000001,0.04000000000000001 -0.8500000000000001,0.04000000000000001 h-1.56 v11.98 c0,0.7200000000000001 0.09000000000000002,0.7200000000000001 -3.62,0.7200000000000001 v-30.54 c0,0 0,-0.7600000000000001 0.7600000000000001,-0.7600000000000001 h4.43 C224.46000518798826,98.79000106811523 227.0500051879883,101.42000106811523 227.0500051879883,107.64000106811523 zM219.50000518798828,101.96000106811525 c-1.3,0 -2.01,0.04000000000000001 -2.24,0.09000000000000002 v11.89 c0.22000000000000003,0 1.61,0.09000000000000002 1.97,0.09000000000000002 c2.5,0 3.8,-1.83 3.8,-6.79 C223.0300051879883,104.06000106811524 222.14000518798827,101.96000106811525 219.50000518798828,101.96000106811525 z" id="svg_14"/>
			<path class="st0" d="M242.2200051879883,102.19000106811524 v27.19 c0,0.7200000000000001 0.04000000000000001,0.7200000000000001 -3.62,0.7200000000000001 v-27.9 h-6.08 v-2.64 c0,-0.7600000000000001 0.7600000000000001,-0.7600000000000001 0.7600000000000001,-0.7600000000000001 h15.2 v2.68 c0,0.7200000000000001 -0.7600000000000001,0.7200000000000001 -0.7600000000000001,0.7200000000000001 H242.2200051879883 z" id="svg_15"/>
			<path class="st0" d="M255.2800051879883,114.44000106811524 c0,-6.8 -0.05000000000000001,-14 -0.05000000000000001,-14 c0,-1.6600000000000001 0.05000000000000001,-1.6600000000000001 3.67,-1.6600000000000001 c0,0 -0.09000000000000002,8.86 -0.09000000000000002,15.65 c0,8 0.09000000000000002,14.93 0.09000000000000002,14.93 c0,0.7200000000000001 -0.04000000000000001,0.7200000000000001 -3.67,0.7200000000000001 C255.2300051879883,130.09000106811524 255.2800051879883,122.44000106811524 255.2800051879883,114.44000106811524 z" id="svg_16"/>
			<path class="st0" d="M280.01000518798827,100.00000106811524 c0,0.6300000000000001 -0.22000000000000003,1.52 -0.8900000000000001,2.46 c-0.6300000000000001,-0.49000000000000005 -2.33,-1.12 -4.38,-1.12 c-2.64,0 -4.34,1.1600000000000001 -4.34,3.17 c0,1.47 0.7200000000000001,2.73 2.06,4.34 l5.36,6.62 c1.79,2.1 2.46,4.12 2.46,6.8 c0,4.61 -1.79,8.5 -8.01,8.5 c-4.07,0 -5.86,-1.52 -5.86,-2.2800000000000002 c0,-0.49000000000000005 0.4,-2.15 0.98,-3 c0.8900000000000001,0.8500000000000001 2.42,1.57 4.74,1.57 c2.8200000000000003,0 4.2,-1.83 4.2,-4.65 c0,-1.97 -0.6200000000000001,-3.44 -2.5,-5.63 l-5.01,-6.26 c-1.61,-2.01 -2.37,-3.85 -2.37,-5.72 c0,-4.2 2.68,-6.66 7.38,-6.66 C278.40000518798826,98.12000106811524 280.01000518798827,99.41000106811524 280.01000518798827,100.00000106811524 z" id="svg_17"/>
			<path class="st0" d="M299.3700051879883,122.13000106811523 h-7.65 l-1.7400000000000002,7.33 c-0.13,0.49000000000000005 -0.27,0.7100000000000001 -1.7000000000000002,0.7100000000000001 c-0.49000000000000005,0 -1.4300000000000002,-0.04000000000000001 -2.2800000000000002,-0.13 l7.96,-30.76 c0.09000000000000002,-0.45 0.8500000000000001,-0.6300000000000001 1.3900000000000001,-0.6300000000000001 c0.6300000000000001,0 1.3,0.04000000000000001 1.7000000000000002,0.13 l8,30.63 c0.09000000000000002,0.49000000000000005 -0.13,0.7600000000000001 -1.56,0.7600000000000001 c-0.54,0 -1.25,0 -2.15,-0.09000000000000002 L299.3700051879883,122.13000106811523 zM292.5300051879883,118.82000106811523 h6.04 l-1.52,-6.35 c-0.7200000000000001,-2.95 -1.3,-5.41 -1.48,-7.5600000000000005 c-0.18000000000000002,2.15 -0.81,4.5600000000000005 -1.52,7.5600000000000005 L292.5300051879883,118.82000106811523 z" id="svg_18"/>
			<path class="st0" d="M319.14000518798827,117.79000106811523 c-0.81,-2.01 -3.13,-9.17 -4.25,-12.66 c0.27,2.91 0.45,11.45 0.45,13.37 v10.86 c0,0.7200000000000001 0.09000000000000002,0.7200000000000001 -3.62,0.7200000000000001 v-30.54 c0,0 0,-0.7600000000000001 0.7600000000000001,-0.7600000000000001 h2.77 l5.01,12.07 c0.8900000000000001,2.33 3.18,9.26 4.25,12.61 v-0.13 c-0.31000000000000005,-2.68 -0.45,-11.18 -0.45,-13.28 v-10.51 c0,-0.7600000000000001 -0.04000000000000001,-0.7600000000000001 3.67,-0.7600000000000001 v30.59 c0,0 0,0.7200000000000001 -0.7600000000000001,0.7200000000000001 h-2.73 L319.14000518798827,117.79000106811523 z" id="svg_19"/>
			<path class="st0" d="M347.7200051879883,122.13000106811523 h-7.65 l-1.7400000000000002,7.33 c-0.13,0.49000000000000005 -0.27,0.7100000000000001 -1.7000000000000002,0.7100000000000001 c-0.49000000000000005,0 -1.4300000000000002,-0.04000000000000001 -2.2800000000000002,-0.13 l7.96,-30.76 c0.09000000000000002,-0.45 0.8500000000000001,-0.6300000000000001 1.3900000000000001,-0.6300000000000001 c0.6300000000000001,0 1.3,0.04000000000000001 1.7000000000000002,0.13 l8,30.63 c0.09000000000000002,0.49000000000000005 -0.13,0.7600000000000001 -1.56,0.7600000000000001 c-0.54,0 -1.25,0 -2.15,-0.09000000000000002 L347.7200051879883,122.13000106811523 zM340.8700051879883,118.82000106811523 h6.04 l-1.52,-6.35 c-0.7200000000000001,-2.95 -1.3,-5.41 -1.48,-7.5600000000000005 c-0.18000000000000002,2.15 -0.81,4.5600000000000005 -1.52,7.5600000000000005 L340.8700051879883,118.82000106811523 z" id="svg_20"/>
			<path class="st0" d="M363.7300051879883,126.69000106811524 h7.69 v2.68 c0,0 0,0.7200000000000001 -0.7600000000000001,0.7200000000000001 h-10.6 v-30.27 c0,-1.03 0.09000000000000002,-1.03 3.67,-1.03 V126.69000106811524 z" id="svg_21"/>
			<path class="st0" d="M390.0700051879883,126.83000106811522 c0,3.04 0,3.26 -0.7200000000000001,3.26 h-10.6 v-30.54 c0,0 0.04000000000000001,-0.7600000000000001 0.7600000000000001,-0.7600000000000001 h10.69 c0,2.95 0,3.27 -0.6700000000000002,3.27 h-7.11 v9.35 h6.71 c0,2.77 0,3.35 -0.6700000000000002,3.35 h-6.04 v12.07 H390.0700051879883 z" id="svg_22"/>
		</g>
	</g>
	<g id="svg_23">
		<path class="st0" d="M40.430005187988286,33.03000106811524 c0,3.73 -2.73,6.55 -6.35,7.15 v0.2 c3.62,0.6000000000000001 6.35,3.42 6.35,7.15 v18.53 c0,9.47 -5.14,14.51 -14.61,14.51 H1.6500051879882847 c-1.01,0 -1.61,-0.6100000000000001 -1.61,-1.62 V1.6100010681152312 c0,-1.11 0.6100000000000001,-1.61 1.61,-1.61 h24.17 c9.47,0 14.61,5.03 14.61,14.5 V33.03000106811524 zM27.03000518798828,17.320001068115232 c0,-2.62 -1.31,-4.03 -4.03,-4.03 h-9.17 v20.35 h9.17 c2.6100000000000003,0 4.03,-1.4100000000000001 4.03,-3.93 V17.320001068115232 zM27.03000518798828,50.96000106811523 c0,-2.62 -1.31,-4.03 -4.03,-4.03 h-9.17 v20.34 h9.17 c2.6100000000000003,0 4.03,-1.3 4.03,-4.03 V50.96000106811523 z" id="svg_24"/>
		<path class="st0" d="M54.540005187988285,14.500001068115239 c0,-9.46 5.03,-14.5 14.51,-14.5 h11.28 c9.47,0 14.51,5.03 14.51,14.5 v51.57 c0,9.47 -5.04,14.51 -14.51,14.51 h-11.28 c-9.47,0 -14.51,-5.04 -14.51,-14.51 V14.500001068115239 zM77.81000518798828,67.58000106811524 c2.6100000000000003,0 4.03,-1.31 4.03,-4.03 V17.020001068115235 c0,-2.62 -1.4100000000000001,-4.03 -4.03,-4.03 h-5.84 c-2.62,0 -4.03,1.4100000000000001 -4.03,4.03 v46.53 c0,2.72 1.4100000000000001,4.03 4.03,4.03 H77.81000518798828 z" id="svg_25"/>
		<path class="st0" d="M134.72000518798828,0.0000010681152318170462 c9.47,0 14.5,5.03 14.5,14.5 v10.68 c0,1.01 -0.51,1.62 -1.61,1.62 h-10.47 c-1.01,0 -1.62,-0.6100000000000001 -1.62,-1.62 v-7.86 c0,-2.62 -1.31,-4.03 -4.03,-4.03 h-4.84 c-2.52,0 -4.03,1.4100000000000001 -4.03,4.03 v13.9 l23.97,7.86 c1.71,0.7100000000000001 2.62,1.81 2.62,3.73 v23.27 c0,9.47 -5.03,14.51 -14.5,14.51 h-11.28 c-9.37,0 -14.5,-5.04 -14.5,-14.51 v-10.57 c0,-1.11 0.6100000000000001,-1.62 1.62,-1.62 h10.47 c1.11,0 1.61,0.51 1.61,1.62 v7.75 c0,2.73 1.51,4.03 4.03,4.03 h4.84 c2.62,0 4.03,-1.3 4.03,-4.03 v-13.39 l-23.87,-7.86 c-1.82,-0.6000000000000001 -2.72,-1.81 -2.72,-3.72 V14.500001068115239 c0,-9.46 5.14,-14.5 14.5,-14.5 H134.72000518798828 z" id="svg_26"/>
		<path class="st0" d="M228.01000518798827,0.0000010681152318170462 c1.31,0 2.01,0.8 1.9100000000000001,2.12 l-8.66,76.55 c-0.1,1.31 -0.81,1.92 -2.11,1.92 h-9.870000000000001 c-1.21,0 -1.9100000000000001,-0.6100000000000001 -2.22,-1.81 l-10.47,-45.53 l-10.57,45.63 c-0.30000000000000004,1.11 -1.01,1.71 -2.22,1.71 h-10.07 c-1.31,0 -2.01,-0.6100000000000001 -2.12,-1.92 l-8.26,-76.55 c-0.1,-1.31 0.6000000000000001,-2.12 1.9100000000000001,-2.12 h9.57 c1.21,0 2.01,0.7000000000000001 2.11,1.9100000000000001 l3.92,47.14 h0.51 l9.97,-47.24 c0.31000000000000005,-1.21 1.01,-1.81 2.22,-1.81 h6.05 c1.2,0 1.9100000000000001,0.6000000000000001 2.21,1.81 l9.870000000000001,47.24 h0.5 l4.13,-47.14 c0.1,-1.21 0.91,-1.9100000000000001 2.12,-1.9100000000000001 H228.01000518798827 z" id="svg_27"/>
		<path class="st0" d="M284.2300051879883,11.680001068115232 c0,1.01 -0.4,1.71 -1.61,1.71 h-25.18 v20.14 h19.24 c1.01,0 1.61,0.6000000000000001 1.61,1.71 v9.97 c0,1.11 -0.6100000000000001,1.71 -1.61,1.71 h-19.24 v20.34 h25.18 c1.21,0 1.61,0.51 1.61,1.62 v10.07 c0,1.01 -0.4,1.62 -1.61,1.62 h-37.07 c-0.9,0 -1.51,-0.6100000000000001 -1.51,-1.62 V1.6100010681152312 c0,-1.01 0.6100000000000001,-1.61 1.51,-1.61 h37.07 c1.21,0 1.61,0.6000000000000001 1.61,1.61 V11.680001068115232 z" id="svg_28"/>
		<path class="st0" d="M312.0400051879883,67.28000106811524 h23.97 c1.11,0 1.61,0.6100000000000001 1.61,1.62 v10.07 c0,1.11 -0.5,1.62 -1.61,1.62 h-36.06 c-1,0 -1.61,-0.51 -1.61,-1.62 V1.6100010681152312 c0,-1.01 0.6000000000000001,-1.61 1.61,-1.61 h10.48 c1.11,0 1.61,0.6000000000000001 1.61,1.61 V67.28000106811524 z" id="svg_29"/>
		<path class="st0" d="M364.4300051879883,67.28000106811524 h23.97 c1.11,0 1.62,0.6100000000000001 1.62,1.62 v10.07 c0,1.11 -0.51,1.62 -1.62,1.62 h-36.06 c-1,0 -1.61,-0.51 -1.61,-1.62 V1.6100010681152312 c0,-1.01 0.6100000000000001,-1.61 1.61,-1.61 h10.47 c1.11,0 1.61,0.6000000000000001 1.61,1.61 V67.28000106811524 z" id="svg_30"/>
	</g>
	<g id="svg_31">
		<path class="st0" d="M432.77000518798826,11.980001068115236 l13.56,-5.69 c2.23,-0.93 2.15,-2.89 1.32,-5.09 h-12.16 C435.01000518798827,3.0900010681152352 433.9800051879883,7.1600010681152355 432.77000518798826,11.980001068115236 z" id="svg_32"/>
		<path class="st0" d="M454.1200051879883,15.270001068115235 c0,-0.010000000000000002 0,-0.020000000000000004 -0.010000000000000002,-0.030000000000000006 c-1,-2.4 -2.35,-4.11 -4.74,-3.1 l-18.58,7.8 c-0.98,3.98 -1.96,7.97 -2.7600000000000002,11.36 l24.94,-10.48 C455.3600051879883,19.840001068115228 455.1100051879883,17.67000106811524 454.1200051879883,15.270001068115235 z" id="svg_33"/>
		<path class="st0" d="M460.9700051879883,29.550001068115236 c-1,-2.39 -2.35,-4.11 -4.74,-3.1 l-29.92,12.57 c-0.43000000000000005,2.17 -1.32,6.07 -2.17,11.12 l35.7,-14.99 c2.39,-1 2.13,-3.18 1.15,-5.57 C460.9700051879883,29.570001068115232 460.9700051879883,29.56000106811524 460.9700051879883,29.550001068115236 z" id="svg_34"/>
		<path class="st0" d="M467.8200051879883,43.85000106811523 c-1,-2.39 -2.35,-4.11 -4.74,-3.1 l-40.01,16.8 c-0.39000000000000007,3.29 -0.6900000000000002,6.84 -0.8300000000000001,10.56 l44.44,-18.66 c2.39,-1 2.14,-3.18 1.15,-5.57 C467.83000518798826,43.880001068115234 467.8200051879883,43.87000106811523 467.8200051879883,43.85000106811523 z" id="svg_35"/>
		<path class="st0" d="M428.96000518798826,81.36000106811522 c-1.03,-2.38 -3.14,-1.92 -5.5600000000000005,-0.9500000000000001 c-0.31000000000000005,0.13 -0.6000000000000001,0.27 -0.8900000000000001,0.42000000000000004 c0.48000000000000004,5.63 1.5,11.37 3.3,16.92 l5.24,12.08 c5.16,9.620000000000001 11.26,16.04 18.17,18.22 L428.96000518798826,81.36000106811522 z" id="svg_36"/>
		<path class="st0" d="M469.5700051879883,128.89000106811523 l-23.83,-54.89 c-1.03,-2.38 -3.14,-1.92 -5.5600000000000005,-0.9600000000000001 c-2.38,1.04 -4.11,2.3200000000000003 -3.07,4.71 l22.21,51.14 C462.09000518798825,128.89000106811523 465.7500051879883,128.89000106811523 469.5700051879883,128.89000106811523 z" id="svg_37"/>
		<path class="st0" d="M488.8000051879883,128.89000106811523 l-26.84,-61.82 c-1.03,-2.39 -3.14,-1.92 -5.55,-0.9600000000000001 c-2.38,1.03 -4.12,2.3200000000000003 -3.08,4.71 l25.21,58.07 C483.2900051879883,128.89000106811523 487.2800051879883,128.89000106811523 488.8000051879883,128.89000106811523 z" id="svg_38"/>
		<path class="st0" d="M515.9300051879883,103.26000106811523 c0.25,-0.5800000000000001 0.48000000000000004,-1.17 0.7200000000000001,-1.7600000000000002 l-20.43,8.870000000000001 c-2.37,1.03 -2.09,3.2 -1.08,5.57 c0.010000000000000002,0.010000000000000002 0.010000000000000002,0.020000000000000004 0.010000000000000002,0.030000000000000006 c1.03,2.38 2.4,4.08 4.78,3.04 l9.95,-4.32 C512.0300051879883,111.38000106811523 514.0600051879883,107.56000106811524 515.9300051879883,103.26000106811523 z" id="svg_39"/>
		<path class="st0" d="M521.4000051879883,79.35000106811523 l-33.14,14.39 c-2.38,1.03 -2.09,3.2 -1.08,5.58 c0.010000000000000002,0.010000000000000002 0.010000000000000002,0.020000000000000004 0.010000000000000002,0.030000000000000006 c1.03,2.39 2.4,4.08 4.78,3.04 l27.98,-12.15 C520.6800051879883,86.61000106811522 521.1400051879883,82.96000106811525 521.4000051879883,79.35000106811523 z" id="svg_40"/>
		<path class="st0" d="M521.0300051879883,60.300001068115236 l-39.7,17.23 c-2.38,1.04 -2.1,3.2 -1.08,5.58 c0,0.010000000000000002 0.010000000000000002,0.020000000000000004 0.010000000000000002,0.030000000000000006 c1.04,2.38 2.4,4.08 4.78,3.04 l36.57,-15.88 C521.5600051879883,66.82000106811523 521.3400051879883,63.45000106811523 521.0300051879883,60.300001068115236 z" id="svg_41"/>
		<path class="st1" d="M484.36000518798824,61.240001068115234 c1.03,2.38 3.2,2.09 5.58,1.08 c0.010000000000000002,-0.010000000000000002 0.020000000000000004,-0.010000000000000002 0.030000000000000006,-0.010000000000000002 c2.39,-1.03 4.08,-2.4 3.04,-4.78 l-24.46,-56.34 h-10.26 L484.36000518798824,61.240001068115234 z" id="svg_42"/>
		<path class="st1" d="M487.7700051879883,1.1900010681152366 H477.5100051879883 l23.07,53.13 c1.03,2.38 3.2,2.1 5.58,1.08 c0.010000000000000002,0 0.010000000000000002,-0.010000000000000002 0.030000000000000006,-0.010000000000000002 c2.38,-1.04 4.08,-2.4 3.04,-4.78 L487.7700051879883,1.1900010681152366 z" id="svg_43"/>
		<path class="st1" d="M496.74000518798823,1.1900010681152366 l20.06,46.2 c0.5900000000000001,1.36 1.55,1.83 2.71,1.81 c-0.8200000000000001,-4.74 -1.6600000000000001,-8.38 -2.05,-10.38 c-1,-5.09 -4.87,-20.64 -7.33,-30.43 l-3.13,-7.2 H496.74000518798823 z" id="svg_44"/>
	</g>
</g></g></svg>